<?xml version="1.0" encoding="UTF-8" standalone="no"?>
<!-- Created with Inkscape (http://www.inkscape.org/) -->

<svg
   width="210mm"
   height="297mm"
   viewBox="0 0 210 297"
   version="1.1"
   id="svg5"
   xmlns="http://www.w3.org/2000/svg"
   xmlns:svg="http://www.w3.org/2000/svg">
  <defs
     id="defs2" />
  <g
     id="layer1">
    <g
       transform="matrix(0.03527778,0,0,-0.03527778,-429.44983,136.07818)"
       fill="#000000"
       stroke="none"
       id="g43">
      <path
         d="m 13609.718,3244.027 c -234.415,-79.977 -452.284,-226.142 -634.3,-424.7057 -140.65,-154.4384 -306.119,-521.2297 -341.971,-750.1295 -60.672,-386.096 71.703,-835.6222 336.455,-1152.77253 l 110.313,-129.61797 -124.102,-159.95408 c -231.658,-297.84555 -333.697,-581.901945 -330.94,-932.14624 0,-471.58878 220.627,-896.29478 614.996,-1185.86678 231.658,-168.2276 441.253,-237.1733 774.95,-253.7203 253.721,-13.7891 322.666,-5.5156 507.441,49.6409 209.595,60.6723 416.432,179.2589 573.628,322.666 l 74.462,71.7036 77.219,-68.9457 c 115.829,-107.5554 328.182,-237.1733 499.167,-306.1191 132.376,-52.3987 204.079,-63.43 512.956,-63.43 308.877,0 380.581,11.0313 515.714,63.43 507.441,204.0794 879.748,678.426 929.389,1177.59334 41.367,449.526146 -68.946,835.62222 -330.94,1147.25691 l -113.071,135.13362 107.556,132.3758 c 250.962,303.36123 341.97,554.32363 341.97,945.93543 0,300.6033 -27.578,435.7369 -143.407,661.8789 -157.196,314.3926 -446.768,576.3863 -783.223,706.0043 -173.744,68.9457 -226.142,77.2192 -537.777,77.2192 -314.392,0 -361.276,-8.2735 -521.23,-77.2192 -198.563,-82.7349 -460.557,-253.7203 -482.62,-311.6347 -24.82,-60.6722 -55.156,-46.8831 -267.509,110.3132 -391.612,297.8455 -893.537,375.0647 -1365.126,215.1106 z m 879.748,-228.8998 c 88.25,-27.5783 201.321,-77.2192 248.205,-110.3131 49.64,-33.094 424.705,-397.1274 838.38,-805.2861 637.058,-634.3007 744.613,-752.8874 722.551,-797.0127 -13.789,-27.5782 -41.368,-49.6409 -60.672,-49.6409 -16.547,0 -372.307,339.213 -791.497,755.6452 -893.537,893.5366 -915.6,907.3258 -1351.337,910.0836 -228.899,2.7578 -281.298,-5.5157 -419.19,-71.7036 -308.877,-143.4071 -488.135,-336.4551 -603.964,-653.6055 -88.251,-245.4467 -66.188,-540.5345 55.156,-785.9812 49.641,-96.5241 126.86,-212.3529 170.986,-253.7203 74.461,-71.7036 77.219,-79.9771 33.094,-126.8602 -66.188,-74.46135 -93.766,-60.67221 -209.595,88.2506 -201.322,259.2359 -300.604,645.332 -242.689,948.6932 140.649,755.6451 868.716,1185.8665 1610.572,951.451 z m 2148.349,0 c 584.66,-168.2276 962.482,-835.6222 810.802,-1425.7976 -82.735,-325.4239 -135.134,-388.8539 -979.03,-1235.50747 -769.434,-772.19214 -802.528,-808.04392 -802.528,-907.32577 0,-220.62633 386.096,-460.55776 667.395,-416.43247 242.689,38.60961 466.073,212.35312 548.808,421.94813 46.883,115.82882 38.609,391.61173 -13.79,518.471869 -27.578,60.67224 -77.219,143.407111 -115.828,182.016721 l -66.188,71.70356 57.914,52.39875 c 57.915,52.39875 57.915,52.39875 140.649,-44.12527 132.376,-154.438426 195.806,-322.666001 198.564,-523.98753 8.274,-444.01048 -369.549,-827.34902 -810.802,-827.34902 -286.814,0 -562.597,140.6493 -708.762,355.76025 -66.188,96.52402 -85.492,284.0564 -38.609,358.51778 13.789,19.30481 369.549,386.096076 794.254,813.55959 421.948,424.70568 802.529,827.34868 843.896,893.53658 176.501,273.0251 204.08,722.5513 63.43,1012.1233 -115.829,231.6577 -270.267,386.0961 -507.44,501.9249 -195.806,99.2819 -226.142,104.7975 -457.8,104.7975 -223.384,0 -270.267,-8.2735 -430.221,-85.4927 -99.282,-46.8831 -226.142,-124.1023 -281.299,-170.9854 -96.524,-85.4927 -96.524,-85.4927 -146.165,-33.0939 -46.883,52.3987 -46.883,57.9144 0,110.3131 74.462,82.7349 314.393,231.6577 441.253,273.0251 137.891,49.6409 383.338,79.9771 510.198,63.4301 52.399,-5.5157 179.259,-33.094 281.299,-63.4301 z m -2197.99,-405.4009 c 113.071,-49.6409 289.572,-212.3528 882.505,-805.2861 736.341,-736.3403 741.856,-741.856 689.458,-799.7704 -49.641,-55.15658 -55.157,-52.39875 -810.802,700.4886 -733.583,728.0669 -766.677,758.403 -921.115,802.5283 -264.752,77.2192 -499.167,8.2734 -692.215,-206.8372 -132.376,-146.165 -154.439,-209.595 -154.439,-449.5262 0,-204.0793 38.61,-308.8768 168.228,-449.5261 52.399,-55.1566 52.399,-57.9144 -2.758,-107.5553 -55.156,-49.641 -57.914,-49.641 -121.344,11.0313 -35.852,33.0939 -99.282,137.8914 -140.65,228.8998 -66.188,148.9228 -74.461,193.048 -63.43,380.5804 13.789,242.689 79.977,380.5804 261.994,559.8393 220.626,209.595 601.207,267.5094 904.568,135.1336 z m 2164.896,0 c 286.814,-126.8601 482.62,-435.737 479.862,-750.1295 -2.758,-319.9082 -30.336,-358.5178 -945.935,-1279.63268 -728.067,-733.58254 -827.349,-843.8957 -857.685,-954.20887 -41.368,-151.6806 -16.547,-369.5491 57.914,-485.3782 85.493,-140.64925 314.393,-336.45515 485.378,-413.67435 226.142,-104.7975 576.386,-110.3132 832.865,-13.7892 223.384,85.4927 455.041,306.11907 570.87,540.53482 71.704,148.92277 79.977,193.04804 79.977,441.25266 0,239.931131 -11.031,295.087713 -71.703,430.22134 -41.368,85.4927 -118.587,204.07935 -173.744,264.75159 -93.766,104.79751 -96.524,113.071 -49.64,157.19626 68.945,60.67224 77.219,57.91441 170.985,-44.12526 107.555,-121.34448 237.173,-386.09608 278.541,-573.628457 137.891,-650.847663 -341.971,-1329.273853 -1014.881,-1431.313553 -253.721,-38.6096 -587.418,13.7891 -774.95,124.1023 -132.376,79.977 -455.042,380.5804 -482.62,452.28396 -13.79,33.09395 -22.063,30.33612 -49.641,-13.78915 -74.462,-118.58661 -303.362,-336.45511 -444.011,-421.94781 -209.595,-124.1024 -521.23,-182.0168 -780.466,-143.4072 -507.44,77.2193 -893.536,432.9792 -1023.154,945.9357 -57.915,217.8685 -38.61,438.49483 60.672,708.76208 74.461,206.83718 77.219,206.83718 863.201,1001.09192 432.979,435.737 794.254,791.497 808.044,791.497 11.031,0 33.093,-27.5783 52.398,-57.9144 27.579,-55.1566 -33.094,-121.3445 -728.067,-821.8331 -904.568,-910.08359 -915.599,-929.38839 -915.599,-1367.88322 2.758,-217.8685 13.789,-297.84554 57.915,-386.09607 159.954,-325.42411 322.666,-485.37821 595.691,-592.93351 140.649,-55.1566 220.626,-68.9458 421.948,-68.9458 220.626,2.7579 267.509,11.0314 430.221,91.0084 126.86,60.6722 231.657,140.6493 333.697,250.9625 129.618,137.89141 157.196,187.53233 184.775,328.18189 24.82,129.61797 24.82,195.80587 0,300.60337 -30.336,115.82883 -79.977,179.2589 -408.159,512.95622 -355.76,361.27561 -372.307,383.33824 -322.666,421.94785 30.336,22.06263 63.43,38.60961 71.704,38.60961 24.82,0 703.246,-694.97294 741.856,-758.40301 l 30.336,-55.15658 30.336,55.15658 c 19.305,30.33612 388.854,416.4322 824.591,854.92703 435.737,441.25264 808.044,827.34874 824.591,857.68484 159.954,319.9082 38.609,736.3404 -264.752,899.0523 -259.236,140.6493 -466.073,126.8601 -722.551,-44.1253 -132.376,-91.0083 -137.892,-91.0083 -184.775,-41.3674 -44.125,49.6409 -41.367,55.1566 41.368,132.3758 49.641,46.8831 151.68,107.5553 231.657,140.6493 179.259,68.9457 468.831,60.6722 653.606,-22.0627 z m -2316.577,-375.0647 c 68.946,-35.8518 124.103,-82.7349 124.103,-102.0397 0,-55.1566 -573.629,-598.4489 -614.996,-584.6598 -19.305,8.2735 -60.672,63.4301 -91.009,126.8602 -110.313,215.1106 -19.304,471.5887 206.838,573.6284 151.68,68.9458 228.899,66.1879 375.064,-13.7891 z m 2195.232,-19.3048 c 193.048,-118.5867 256.478,-336.4552 159.954,-537.7767 -88.25,-182.0167 -110.313,-173.7432 -438.494,154.4384 -165.47,165.4698 -295.088,306.1191 -286.815,311.6347 68.946,55.1566 187.533,126.8602 231.658,137.8915 93.766,24.8204 231.658,-2.7579 333.697,-66.1879 z m -1505.774,-656.3633 c 0,-11.0314 -317.151,-333.6974 -706.005,-719.79344 -386.096,-386.09608 -736.34,-755.645178 -774.95,-821.833076 -60.672,-104.797506 -68.945,-140.649284 -60.672,-344.728634 11.032,-212.35284 19.305,-239.93114 107.556,-361.27562 250.962,-336.45543 706.004,-377.82283 1006.607,-88.25053 206.837,198.5637 179.259,278.54074 -259.236,719.793398 -228.9,226.141982 -270.267,281.298572 -248.204,322.666002 13.789,27.57829 44.125,49.64093 63.43,49.64093 60.672,0 631.543,-612.23806 689.457,-736.34037 68.946,-154.43843 41.367,-284.0564 -85.493,-424.70596 -380.58,-421.9479 -1056.248,-344.7286 -1345.82,151.68088 -63.43,107.55533 -79.977,176.50106 -91.009,347.48646 -22.062,366.791273 8.274,410.916539 871.474,1274.11705 686.7,686.69941 739.098,733.58251 783.224,692.21511 27.578,-24.8205 49.641,-52.3988 49.641,-60.6722 z m 493.651,-1086.58471 -303.361,-306.11903 -286.814,295.08771 c -159.954,162.71192 -289.572,306.11903 -289.572,322.666 0,16.54698 129.618,159.95409 289.572,319.90813 l 292.33,289.5721 300.603,-306.119 300.603,-306.11906 z M 14376.395,-622.44937 c -110.313,-91.00836 -264.752,-124.10231 -391.612,-85.4927 -311.634,93.76619 -427.463,430.22134 -228.9,667.394643 l 71.704,85.492702 306.119,-308.876855 306.119,-306.11903 z m 2269.693,507.44056 c 121.345,-259.23594 -44.125,-559.83931 -336.455,-606.7224 -88.25,-13.78915 -140.649,-2.75783 -242.689,46.88309 -68.946,35.85178 -135.133,74.46139 -143.407,88.25053 -8.273,13.78915 118.587,159.95409 281.299,322.66601 325.423,328.181659 353.002,336.455146 441.252,148.92277 z"
         id="path25"
         style="fill:#6c5353;stroke-width:1" />
    </g>
  </g>
</svg>
